# xmcd
#
# Track frame offsets: 
#        150
#        26727
#        49978
#        74549
#        95112
#        119098
#        140523
#        163718
#        186268
#        205451
#        235154
#
# Disc length: 3373 seconds
#
# Revision: 0
# Processed by: cddbd v1.5.1PL2 Copyright (c) Steve Scherf et al.
# Submitted via: ExactAudioCopy v0.95a2
#
DISCID=af0d2b0b
DTITLE=Dudubeat - Experience
DYEAR=2003
DGENRE=Ethnic
TTITLE0=Angut ahchik
TTITLE1=Lusnyak gisher
TTITLE2=Dle yaman
TTITLE3=Caravan
TTITLE4=Eli-eli
TTITLE5=Siretsi yars taran
TTITLE6=Pnjlik-Mnglik
TTITLE7=Ansta gnatsi
TTITLE8=Olor-Molor
TTITLE9=New jazz
TTITLE10=Sadness
EXTD=
EXTT0=
EXTT1=
EXTT2=
EXTT3=
EXTT4=
EXTT5=
EXTT6=
EXTT7=
EXTT8=
EXTT9=
EXTT10=
PLAYORDER=
